<svg xmlns="http://www.w3.org/2000/svg" width="23" height="23" fill="none" viewBox="0 0 23 23"><path d="M20.79 2.226a7.613 7.613 0 0 0-10.76 0C8.436 3.818 7.192 5.75 7.192 8.623v3.856l-1.824 1.823c-.436.435-1.079.497-1.653.27a2.711 2.711 0 0 0-2.92 4.433c.686.685 1.64.879 2.521.677-.202.88-.008 1.834.679 2.52a2.711 2.711 0 0 0 4.438-2.92c-.228-.572-.167-1.212.27-1.65l1.824-1.822h3.859a8.44 8.44 0 0 0 2.78-.45c-1.78-1.97-1.79-4.95.047-6.785 1.545-1.543 3.898-1.772 5.784-.754.058-2.02-.666-4.055-2.207-5.595z"/></svg>