<svg xmlns="http://www.w3.org/2000/svg" width="20" height="20" fill="none" viewBox="0 0 20 20"><path fill="#BFBFC5" d="M10 0C4.476 0 0 4.476 0 10s4.476 10 10 10 10-4.476 10-10S15.524 0 10 0zm0 18.064A8.062 8.062 0 0 1 1.935 10 8.062 8.062 0 0 1 10 1.935 8.062 8.062 0 0 1 18.064 10 8.062 8.062 0 0 1 10 18.064zm2.492-4.21l-3.423-2.487a.487.487 0 0 1-.198-.391V4.355c0-.266.218-.484.484-.484h1.29c.266 0 .484.218.484.484v5.713l2.694 1.96c.217.157.262.46.104.678l-.758 1.044a.487.487 0 0 1-.677.105z"/></svg>