<svg width="25" height="14" viewBox="0 0 25 14" fill="none" xmlns="http://www.w3.org/2000/svg">
<path d="M14.1971 0C10.2921 0 6.88198 2.39619 4.98398 4.44631L1.19363 1.55663C0.667154 1.155 -0.118869 1.58288 0.0156793 2.198L1.06516 7L0.0152453 11.8024C-0.119303 12.4176 0.666719 12.845 1.19319 12.4438L4.98355 9.55412C6.88155 11.6038 10.2921 14 14.1971 14C20.1632 14 25 8.4 25 7C25 5.6 20.1632 0 14.1971 0ZM17.9918 8.05C17.4167 8.05 16.9501 7.57969 16.9501 7C16.9501 6.41987 17.4167 5.95 17.9918 5.95C18.5673 5.95 19.0334 6.41987 19.0334 7C19.0334 7.57969 18.5669 8.05 17.9918 8.05Z" fill="#BFBFC5"/>
</svg>
