<svg xmlns="http://www.w3.org/2000/svg">
  <symbol id="logo" viewBox="0 0 30 38"><path fill="#F03360" fill-rule="evenodd" d="M29.48 6.733c-.477-.48-.954-.962-1.43-1.399C24.406 1.75 19.724 0 15 0A18.676 18.676 0 0 0 1.95 5.29C1.475 5.771.998 6.296.52 6.733a1.753 1.753 0 0 0 0 2.493l2.471 2.492c.694.7 1.821.7 2.515 0 .607-.612 1.214-1.268 1.864-1.837 2.168-1.88 4.899-2.798 7.587-2.798 1.82 0 3.685.437 5.332 1.268l-7.804 7.827c-1.387 1.399-1.387 3.629 0 4.984a3.537 3.537 0 0 0 5.03 0c3.988-3.979 7.976-7.958 11.965-11.98a1.7 1.7 0 0 0 0-2.449z" clip-rule="evenodd"/><path fill="#BFBFC5" fill-rule="evenodd" d="M27.009 25.665c-.694-.7-1.821-.7-2.515 0l-1.257 1.225C20.983 29.163 17.991 30.3 15 30.3a11.65 11.65 0 0 1-7.934-3.104c-.52-.481-1.04-1.006-1.56-1.53-.694-.7-1.821-.7-2.515 0l-2.47 2.448a1.805 1.805 0 0 0 0 2.536c.433.437.866.918 1.343 1.355A18.705 18.705 0 0 0 15 37.383c5.202 0 9.798-2.055 13.44-5.684l1.04-1.05a1.805 1.805 0 0 0 0-2.535l-2.471-2.449z" clip-rule="evenodd"/></symbol>
  <symbol id="fish" viewBox="0 0 25 14"><path d="M14.197 0c-3.905 0-7.315 2.396-9.213 4.446l-3.79-2.89c-.527-.401-1.313.027-1.178.642L1.066 7l-1.05 4.802c-.135.616.65 1.043 1.177.642l3.79-2.89c1.9 2.05 5.311 4.446 9.215 4.446C20.163 14 25 8.4 25 7c0-1.4-4.837-7-10.803-7zm3.795 8.05c-.575 0-1.042-.47-1.042-1.05 0-.58.467-1.05 1.042-1.05s1.041.47 1.041 1.05c0 .58-.466 1.05-1.041 1.05z"/></symbol>
  <symbol id="veg" viewBox="0 0 22 20"><path d="M20.862.38c-.214-.488-.825-.508-1.081-.047-1.184 2.105-3.304 3.417-5.726 3.417h-3.056c-4.049 0-7.334 3.36-7.334 7.5 0 .273.03.534.057.8 2.437-1.785 5.955-3.3 10.944-3.3a.62.62 0 0 1 .611.625.62.62 0 0 1-.611.625C5.063 10 .991 16.018.09 18.28a1.26 1.26 0 0 0 .668 1.624 1.215 1.215 0 0 0 1.597-.675c.057-.14.798-1.871 2.746-3.539 1.238 1.715 3.59 3.351 6.681 3.015C17.779 18.26 22 12.761 22 6.027c0-1.96-.413-3.991-1.138-5.647z"/></symbol>
  <symbol id="cookies" viewBox="0 0 20 20"><path d="M19.942 9.993a4.997 4.997 0 0 1-4.94-4.995 4.997 4.997 0 0 1-4.995-4.94A5.155 5.155 0 0 0 6.893.56l-2.7 1.375a5.165 5.165 0 0 0-2.257 2.258L.565 6.884a5.181 5.181 0 0 0-.501 3.162l.472 2.98a5.177 5.177 0 0 0 1.451 2.85l2.14 2.138a5.157 5.157 0 0 0 2.84 1.448l2.996.474a5.153 5.153 0 0 0 3.146-.498l2.7-1.375a5.167 5.167 0 0 0 2.258-2.258l1.37-2.691a5.18 5.18 0 0 0 .505-3.121zM6.875 14.374a1.25 1.25 0 1 1 0-2.5 1.25 1.25 0 0 1 0 2.5zm1.25-6.25a1.25 1.25 0 1 1 0-2.5 1.25 1.25 0 0 1 0 2.5zm6.25 5a1.25 1.25 0 1 1 0-2.5 1.25 1.25 0 0 1 0 2.5z"/></symbol>
  <symbol id="chicken" viewBox="0 0 23 23"><path d="M20.79 2.226a7.613 7.613 0 0 0-10.76 0C8.436 3.818 7.192 5.75 7.192 8.623v3.856l-1.824 1.823c-.436.435-1.079.497-1.653.27a2.711 2.711 0 0 0-2.92 4.433c.686.685 1.64.879 2.521.677-.202.88-.008 1.834.679 2.52a2.711 2.711 0 0 0 4.438-2.92c-.228-.572-.167-1.212.27-1.65l1.824-1.822h3.859a8.44 8.44 0 0 0 2.78-.45c-1.78-1.97-1.79-4.95.047-6.785 1.545-1.543 3.898-1.772 5.784-.754.058-2.02-.666-4.055-2.207-5.595z"/></symbol>
  <symbol id="star" viewBox="0 0 22 21"><path fill-rule="evenodd" d="M9.82.73L7.135 6.16l-6.008.874C.049 7.19-.383 8.514.399 9.273l4.346 4.224-1.028 5.967c-.185 1.079.954 1.887 1.908 1.382L11 18.03l5.375 2.817c.954.5 2.093-.303 1.908-1.382l-1.028-5.967L21.6 9.273c.781-.759.35-2.083-.728-2.24l-6.008-.873L12.18.73c-.48-.967-1.875-.98-2.36 0z"/></symbol>
  <symbol id="clocks" viewBox="0 0 20 20"><path d="M10 0C4.476 0 0 4.476 0 10s4.476 10 10 10 10-4.476 10-10S15.524 0 10 0zm0 18.064A8.062 8.062 0 0 1 1.935 10 8.062 8.062 0 0 1 10 1.935 8.062 8.062 0 0 1 18.064 10 8.062 8.062 0 0 1 10 18.064zm2.492-4.21l-3.423-2.487a.487.487 0 0 1-.198-.391V4.355c0-.266.218-.484.484-.484h1.29c.266 0 .484.218.484.484v5.713l2.694 1.96c.217.157.262.46.104.678l-.758 1.044a.487.487 0 0 1-.677.105z"/></symbol></svg>