<svg xmlns="http://www.w3.org/2000/svg" width="30" height="38" fill="none" viewBox="0 0 30 38"><path fill="#F03360" fill-rule="evenodd" d="M29.48 6.733c-.477-.48-.954-.962-1.43-1.399C24.406 1.75 19.724 0 15 0A18.676 18.676 0 0 0 1.95 5.29C1.475 5.771.998 6.296.52 6.733a1.753 1.753 0 0 0 0 2.493l2.471 2.492c.694.7 1.821.7 2.515 0 .607-.612 1.214-1.268 1.864-1.837 2.168-1.88 4.899-2.798 7.587-2.798 1.82 0 3.685.437 5.332 1.268l-7.804 7.827c-1.387 1.399-1.387 3.629 0 4.984a3.537 3.537 0 0 0 5.03 0c3.988-3.979 7.976-7.958 11.965-11.98a1.7 1.7 0 0 0 0-2.449z" clip-rule="evenodd"/><path fill="#BFBFC5" fill-rule="evenodd" d="M27.009 25.665c-.694-.7-1.821-.7-2.515 0l-1.257 1.225C20.983 29.163 17.991 30.3 15 30.3a11.65 11.65 0 0 1-7.934-3.104c-.52-.481-1.04-1.006-1.56-1.53-.694-.7-1.821-.7-2.515 0l-2.47 2.448a1.805 1.805 0 0 0 0 2.536c.433.437.866.918 1.343 1.355A18.705 18.705 0 0 0 15 37.383c5.202 0 9.798-2.055 13.44-5.684l1.04-1.05a1.805 1.805 0 0 0 0-2.535l-2.471-2.449z" clip-rule="evenodd"/></svg>