<svg xmlns="http://www.w3.org/2000/svg" width="22" height="20" fill="none" viewBox="0 0 22 20"><path fill="#BFBFC5" d="M20.862.38c-.214-.488-.825-.508-1.081-.047-1.184 2.105-3.304 3.417-5.726 3.417h-3.056c-4.049 0-7.334 3.36-7.334 7.5 0 .273.03.534.057.8 2.437-1.785 5.955-3.3 10.944-3.3a.62.62 0 0 1 .611.625.62.62 0 0 1-.611.625C5.063 10 .991 16.018.09 18.28a1.26 1.26 0 0 0 .668 1.624 1.215 1.215 0 0 0 1.597-.675c.057-.14.798-1.871 2.746-3.539 1.238 1.715 3.59 3.351 6.681 3.015C17.779 18.26 22 12.761 22 6.027c0-1.96-.413-3.991-1.138-5.647z"/></svg>